<?xml version="1.0" standalone="no"?>
<!DOCTYPE svg PUBLIC "-//W3C//DTD SVG 20010904//EN"
 "http://www.w3.org/TR/2001/REC-SVG-20010904/DTD/svg10.dtd">
<svg version="1.0" xmlns="http://www.w3.org/2000/svg"
 width="372.000000pt" height="372.000000pt" viewBox="0 0 372.000000 372.000000"
 preserveAspectRatio="xMidYMid meet">
<metadata>
Created by potrace 1.14, written by Peter Selinger 2001-2017
</metadata>
<g transform="translate(0.000000,372.000000) scale(0.100000,-0.100000)"
fill="#000000" stroke="none">
<path d="M2143 3658 c-43 -17 -53 -25 -53 -45 0 -14 -17 -42 -41 -67 l-40 -44
-51 31 c-47 30 -58 32 -137 32 -71 0 -94 -4 -130 -24 -77 -41 -129 -105 -146
-180 -6 -26 -12 -31 -58 -41 -181 -38 -379 -121 -515 -216 -35 -24 -66 -44
-69 -44 -12 0 -101 -77 -197 -172 -54 -54 -103 -95 -108 -92 -25 15 -135 5
-181 -16 -50 -23 -114 -79 -139 -120 -19 -32 -38 -109 -38 -155 0 -30 -3 -36
-16 -31 -20 8 -71 -19 -85 -45 -14 -28 -4 -82 21 -104 24 -22 26 -8 4 23 -8
12 -11 22 -7 22 5 0 13 -8 20 -18 16 -26 92 -61 141 -64 16 -2 15 -16 -7 -106
-71 -277 -63 -580 21 -839 l20 -63 -41 -46 c-94 -107 -92 -258 4 -372 35 -41
12 -36 -70 16 -68 43 -85 44 -38 1 31 -27 44 -34 148 -74 138 -53 192 -62 265
-41 23 6 36 -2 101 -67 64 -62 131 -118 259 -216 14 -11 28 -20 32 -20 5 -1
32 -16 60 -35 107 -68 297 -146 389 -161 72 -11 74 -13 99 -73 28 -67 48 -91
111 -131 44 -27 52 -29 167 -30 72 -1 123 2 126 8 4 6 13 8 22 4 9 -3 14 0 12
7 -5 19 38 31 52 14 7 -8 17 -14 23 -14 5 0 2 9 -8 20 -20 22 -14 50 10 50 9
0 14 4 11 8 -5 8 24 95 35 106 3 3 48 15 100 25 247 52 524 207 729 411 l85
84 80 1 c66 0 90 5 135 27 30 14 70 29 89 33 18 4 42 16 53 27 13 13 38 21 70
24 63 5 68 9 68 43 0 40 -28 61 -81 61 l-45 0 0 63 c-1 34 -4 71 -7 82 -3 11
-6 23 -6 26 -1 4 -16 29 -35 56 l-34 50 19 69 c43 154 61 269 64 414 2 80 0
170 -5 200 -4 30 -11 75 -14 100 -4 25 -18 84 -31 131 -31 109 -35 151 -15
154 8 2 23 6 32 10 12 5 23 -3 40 -29 21 -32 62 -55 76 -42 6 6 5 48 -2 91 -7
47 -24 84 -50 108 -18 17 -25 36 -29 77 -12 134 -79 224 -217 292 -41 21 -69
38 -62 38 15 0 15 21 0 55 -16 35 -55 34 -64 -1 -4 -14 -2 -30 5 -37 21 -21
11 -35 -31 -39 -41 -4 -46 -2 -113 61 -39 36 -95 87 -125 112 -67 56 -252 172
-329 206 -64 29 -231 84 -308 103 -49 11 -53 15 -63 51 -6 21 -15 41 -21 45
-19 11 71 94 103 94 22 0 30 7 44 38 9 20 20 46 26 58 5 12 8 32 6 45 -4 32
-46 35 -115 7z m147 -478 c188 -61 358 -148 455 -232 28 -24 70 -59 94 -78 23
-19 53 -50 67 -68 l25 -32 -36 -42 c-20 -24 -43 -65 -53 -91 -12 -35 -25 -52
-42 -59 -88 -35 -90 -36 -90 -72 0 -40 28 -65 98 -85 35 -10 42 -16 36 -29
-12 -30 -11 -111 2 -116 7 -3 16 3 19 14 10 31 53 34 94 7 74 -48 159 -66 229
-47 37 10 39 8 66 -90 30 -109 40 -198 41 -345 0 -191 -10 -271 -57 -428 -18
-61 -22 -67 -42 -61 -11 3 -31 17 -44 30 -21 22 -30 24 -129 24 -96 0 -109 -2
-130 -22 -20 -18 -23 -31 -23 -89 0 -37 -4 -70 -9 -73 -4 -3 -16 -33 -25 -66
-20 -71 -15 -130 15 -196 10 -24 19 -48 19 -54 0 -6 12 -23 26 -37 l26 -26
-84 -83 c-88 -87 -261 -209 -369 -261 -69 -33 -248 -96 -316 -111 l-41 -9 -17
43 c-34 90 -161 194 -238 194 -15 0 -38 5 -49 11 -27 15 -90 14 -120 -2 -13
-6 -54 -43 -91 -83 -48 -50 -71 -83 -80 -113 -7 -27 -17 -43 -26 -43 -8 0 -76
21 -150 46 -169 58 -240 95 -416 219 -52 36 -195 173 -195 186 0 15 71 51 88
44 76 -30 152 13 152 86 0 47 -47 97 -107 114 -32 9 -37 15 -54 71 -23 76 -91
152 -164 186 -40 18 -66 23 -132 22 -80 -1 -81 -1 -86 25 -65 342 -67 503 -11
769 8 39 18 72 21 72 3 0 13 -9 23 -20 15 -17 22 -18 51 -9 19 6 41 19 49 28
8 9 24 17 35 19 44 7 125 55 163 96 44 47 72 121 72 188 0 20 -11 67 -25 103
l-24 65 29 66 c18 39 28 75 24 88 -4 17 4 28 38 53 24 17 57 43 73 57 85 75
275 179 420 230 l67 23 26 -24 c19 -18 27 -20 34 -11 4 7 8 8 8 2 0 -6 15 -10
32 -9 27 1 38 -5 59 -34 l27 -36 -55 -57 c-42 -42 -54 -61 -49 -74 6 -16 16
-9 66 41 32 33 56 62 53 65 -3 3 -13 -6 -24 -19 -11 -13 -22 -22 -24 -19 -3 2
6 15 20 28 l24 23 44 -26 c35 -21 44 -32 44 -54 1 -79 4 -93 22 -103 31 -16
48 -3 67 53 18 49 21 51 59 55 22 2 63 14 90 27 80 37 130 96 159 188 5 16 12
18 49 12 23 -4 80 -20 127 -35z m-729 -203 l-23 -22 17 28 c10 15 20 25 23 22
3 -3 -5 -16 -17 -28z m-1398 -557 c-3 -12 -8 -19 -11 -16 -5 6 5 36 12 36 2 0
2 -9 -1 -20z m101 -22 c9 -12 16 -30 16 -40 0 -16 -3 -17 -32 -5 -33 14 -45
44 -23 59 16 12 23 9 39 -14z m-60 -44 c3 -8 2 -12 -4 -9 -6 3 -10 10 -10 16
0 14 7 11 14 -7z"/>
<path d="M1532 3076 c-36 -35 -38 -41 -16 -50 11 -4 15 -2 11 8 -6 14 10 36
26 36 5 0 3 -8 -4 -17 -7 -10 -1 -7 14 6 27 24 36 38 18 26 -5 -3 -11 1 -13 9
-2 9 -13 4 -36 -18z"/>
<path d="M1615 2980 c-29 -30 -35 -40 -21 -40 11 0 15 -4 10 -12 -4 -7 2 -5
14 6 12 10 19 23 15 29 -3 5 -1 7 4 4 6 -4 18 2 28 13 20 22 8 28 -15 8 -8 -7
-6 -3 4 10 32 38 2 24 -39 -18z"/>
<path d="M1745 2809 c-27 -9 -63 -18 -79 -18 -95 -3 -298 -85 -436 -177 -123
-82 -160 -113 -174 -144 -6 -14 -32 -57 -58 -96 -89 -134 -144 -265 -168 -404
-7 -36 -16 -77 -22 -92 -14 -38 -17 -99 -6 -128 5 -14 16 -61 24 -105 8 -44
24 -109 36 -145 23 -72 95 -223 109 -228 5 -2 9 -12 9 -22 0 -10 5 -22 11 -25
6 -4 8 -13 5 -20 -3 -8 3 -16 12 -19 9 -3 67 -55 127 -115 182 -179 344 -266
578 -307 96 -17 241 -15 342 5 318 61 593 277 723 566 122 271 123 563 4 830
-76 171 -241 359 -424 483 -89 61 -280 132 -393 146 -22 3 -54 10 -70 16 -47
19 -96 18 -150 -1z m192 -298 c16 -1 21 -6 17 -16 -4 -8 -12 -15 -19 -15 -7 0
-24 -12 -39 -26 -14 -15 -26 -24 -26 -21 0 3 -11 -4 -25 -17 -14 -13 -25 -30
-25 -37 0 -8 -3 -10 -8 -4 -4 6 -14 11 -22 13 -31 7 -171 95 -163 103 20 20
147 29 310 20z m-476 -157 c-10 -44 -25 -111 -32 -151 -15 -92 -23 -105 -44
-76 -23 33 -70 42 -134 26 -29 -8 -55 -12 -58 -9 -7 7 48 93 84 132 52 56 192
167 201 159 2 -1 -6 -38 -17 -81z m865 -41 c82 -80 124 -163 82 -163 -7 0 -46
9 -87 20 -73 18 -91 30 -91 60 0 15 -40 147 -55 184 -11 25 93 -44 151 -101z
m-672 72 c32 -19 60 -35 62 -35 4 0 128 -82 134 -89 3 -3 23 -20 45 -36 22
-16 54 -43 70 -58 17 -16 37 -34 46 -41 8 -6 23 -22 32 -36 22 -31 23 -122 2
-140 -16 -13 -55 -5 -55 13 -1 7 -10 23 -21 37 -21 24 -25 25 -150 25 -116 0
-129 -2 -143 -20 -9 -11 -16 -30 -16 -42 0 -18 -6 -23 -24 -23 -13 0 -31 -3
-39 -6 -19 -7 -35 85 -17 96 7 4 9 13 6 19 -4 6 0 11 11 11 14 0 15 2 5 9 -10
6 -9 10 7 14 18 4 20 9 11 31 -5 14 -7 26 -5 26 3 0 10 -12 15 -26 6 -14 14
-23 19 -19 5 3 12 1 15 -3 3 -5 16 -7 29 -5 25 5 32 31 12 45 -5 4 -10 13 -11
20 0 7 -2 21 -2 30 -2 17 -42 22 -42 5 0 -4 -5 -5 -12 -1 -7 5 -9 2 -5 -9 4
-12 1 -15 -14 -12 -12 3 -17 0 -13 -7 5 -7 2 -9 -8 -5 -12 4 -14 1 -11 -14 3
-10 0 -19 -6 -19 -6 0 -11 -6 -11 -14 0 -10 -9 -14 -27 -13 -27 3 -28 4 -25
62 2 50 44 233 59 258 7 12 17 9 77 -28z m769 -316 l76 -22 17 -56 c23 -75 30
-258 12 -334 l-14 -58 -31 45 c-42 60 -72 77 -140 82 -31 2 -58 6 -61 8 -10
11 -8 44 4 68 18 35 18 82 -1 117 -8 16 -17 50 -20 77 -3 27 -8 62 -12 78 l-5
29 50 -6 c27 -3 84 -16 125 -28z m-1070 5 c5 -6 -8 -23 -50 -67 -35 -37 -103
-19 -103 29 0 19 137 54 153 38z m-163 -157 c0 -12 75 -120 133 -190 26 -32
47 -60 47 -63 0 -3 -16 -2 -36 2 -27 5 -39 2 -53 -12 -23 -26 -24 -30 -6 -63
15 -30 15 -30 -17 -33 -27 -2 -36 -10 -53 -45 -22 -48 -41 -57 -31 -17 5 20 2
30 -12 40 -35 24 -56 126 -56 269 0 83 5 141 13 160 l13 30 29 -35 c16 -19 29
-38 29 -43z"/>
</g>
</svg>
